<?xml version="1.0" encoding="UTF-8"?>
<svg version="1.1" xmlns="http://www.w3.org/2000/svg" width="451" height="169">
<path d="M0 0 C1.32 0 2.64 0 4 0 C4 0.66 4 1.32 4 2 C4.515625 2.226875 5.03125 2.45375 5.5625 2.6875 C8.92403127 4.4975553 11.92911144 6.73996404 15 9 C14.52975621 12.05658463 13.75658976 13.31289437 11.796875 15.83203125 C9.59772146 18.8903313 9.59772146 18.8903313 10.703125 22.26171875 C11.21359375 23.39222656 11.7240625 24.52273437 12.25 25.6875 C15.92351444 34.6163121 16.16681915 42.37211093 13.1328125 51.5625 C11.11954605 55.89449402 8.14245805 59.43567772 5 63 C5.7425 63.845625 6.485 64.69125 7.25 65.5625 C13.51331375 73.21370714 15.47658101 79.43741191 14.8515625 89.35546875 C13.66893224 96.77975873 9.45826646 103.1328902 3.71484375 107.89453125 C1.51732812 109.40234247 -0.63884126 110.76518907 -3 112 C-3.69996094 112.36996094 -4.39992187 112.73992187 -5.12109375 113.12109375 C-15.28595405 116.22434147 -28.35000555 115.52564397 -37.9375 111.0625 C-47.45432229 105.38879113 -52.29839071 97.65541552 -55 87 C-55 85.68 -55 84.36 -55 83 C-52.04196565 82.80578562 -49.08379837 82.61933814 -46.125 82.4375 C-44.86236328 82.35338867 -44.86236328 82.35338867 -43.57421875 82.26757812 C-42.76855469 82.21923828 -41.96289062 82.17089844 -41.1328125 82.12109375 C-40.01737061 82.05039673 -40.01737061 82.05039673 -38.87939453 81.97827148 C-37 82 -37 82 -35 83 C-34.32421875 84.70703125 -34.32421875 84.70703125 -33.6875 86.8125 C-32.27367267 90.79692247 -30.68574598 92.75259392 -27 95 C-22.12671563 97.01653146 -16.58653675 96.57969612 -11.75 94.8125 C-8.65790525 92.77452846 -6.8883444 91.19565975 -5 88 C-4.55874687 83.80809522 -4.50249435 80.49650791 -7 77 C-10.48744451 73.62908108 -13.32176832 73.64584275 -18.0625 73.5625 C-28.33179274 73.1380359 -38.3398792 70.16832316 -46 63 C-52.73075486 54.08824947 -54.7663328 44.20358364 -53.375 33.25 C-52.38086915 27.91610564 -50.83522874 23.6019571 -48 19 C-47.46375 17.96875 -46.9275 16.9375 -46.375 15.875 C-41.75643355 10.28410377 -34.97398865 6.80434123 -28 5 C-24.97308139 4.75225267 -21.97257664 4.76519364 -18.9375 4.8125 C-17.75317383 4.8134668 -17.75317383 4.8134668 -16.54492188 4.81445312 C-12.53638714 4.84469354 -8.93587166 5.21282567 -5 6 C-4.01 5.67 -3.02 5.34 -2 5 C-0.78130071 2.49552484 -0.78130071 2.49552484 0 0 Z M-28 24 C-32.73429005 28.44574415 -34.75971031 31.81616157 -35.25 38.3125 C-34.77989102 45.24660752 -32.10420779 49.43307724 -27 54 C-26.67 54.33 -26.34 54.66 -26 55 C-20.87899723 55.58631771 -15.46530219 56.12854205 -10.6875 53.94140625 C-6.41397774 50.54285084 -3.93027523 46.37601157 -3 41 C-2.76338708 34.94065168 -4.05802978 30.73036426 -8 26 C-13.50099924 20.29526004 -21.54699603 19.98209187 -28 24 Z " fill="#090909" transform="translate(59,50)"/>
<path d="M0 0 C8.25 0 16.5 0 25 0 C25.969375 2.8875 26.93875 5.775 27.9375 8.75 C28.24163818 9.65331055 28.54577637 10.55662109 28.85913086 11.48730469 C29.10026611 12.20821289 29.34140137 12.92912109 29.58984375 13.671875 C29.83597412 14.4050293 30.08210449 15.13818359 30.33569336 15.89355469 C30.97322355 17.91509473 31.50906354 19.93847426 32 22 C33.48663983 19.24454302 34.4150229 16.72989312 35.0703125 13.671875 C35.22773926 12.9509668 35.38516602 12.23005859 35.54736328 11.48730469 C35.7379834 10.58399414 35.92860352 9.68068359 36.125 8.75 C36.74375 5.8625 37.3625 2.975 38 0 C45.59 0 53.18 0 61 0 C63.64066177 9.38901964 66.23065719 18.76752784 68.54980469 28.24047852 C69.60224417 32.50476425 70.76490126 36.72278561 72 40.9375 C73.54639551 46.26125687 74.91666998 51.6053731 76.1875 57 C76.35443359 57.70632568 76.52136719 58.41265137 76.69335938 59.14038086 C77.60585366 63.07621654 78.3823908 67.00737487 79 71 C60.84210526 73.42105263 60.84210526 73.42105263 56 71 C55.03830784 68.31600461 54.17729112 65.66855494 53.375 62.9375 C53.03082031 61.79958008 53.03082031 61.79958008 52.6796875 60.63867188 C52.11289807 58.76118188 51.55555923 56.88084367 51 55 C50.67 55 50.34 55 50 55 C49.34 57.97 48.68 60.94 48 64 C47.01 64 46.02 64 45 64 C45.66 66.31 46.32 68.62 47 71 C42.68362508 72.43879164 38.52157417 72.22452634 34 72.25 C33.08476562 72.270625 32.16953125 72.29125 31.2265625 72.3125 C30.34742188 72.31765625 29.46828125 72.3228125 28.5625 72.328125 C27.75941406 72.3374707 26.95632812 72.34681641 26.12890625 72.35644531 C23.3945306 71.89862554 22.63584228 71.22297574 21 69 C19.97265625 66.5390625 19.97265625 66.5390625 19.0625 63.625 C18.72476563 62.55636719 18.38703125 61.48773438 18.0390625 60.38671875 C17.69617188 59.26910156 17.35328125 58.15148437 17 57 C16.65710938 55.91332031 16.31421875 54.82664063 15.9609375 53.70703125 C14.06559241 47.65205475 12.30259201 41.57941387 10.7109375 35.4375 C10.02919972 32.93651623 10.02919972 32.93651623 8.9140625 30.375 C8 28 8 28 8 25 C6.2984375 25.0309375 6.2984375 25.0309375 4.5625 25.0625 C1 25 1 25 0 24 C-0.08726223 22.21928754 -0.10699041 20.4351686 -0.09765625 18.65234375 C-0.09515869 17.68031006 -0.09266113 16.70827637 -0.09008789 15.70678711 C-0.08098389 14.46292236 -0.07187988 13.21905762 -0.0625 11.9375 C-0.041875 7.998125 -0.02125 4.05875 0 0 Z M33 25 C33.33 26.98 33.66 28.96 34 31 C34.6814823 29.10820797 34.6814823 29.10820797 35 27 C34.34 26.34 33.68 25.68 33 25 Z M35 32 C35.33 33.65 35.66 35.3 36 37 C36.33 36.01 36.66 35.02 37 34 C36.34 33.34 35.68 32.68 35 32 Z M37 37 C37.33 38.65 37.66 40.3 38 42 C38.33 41.34 38.66 40.68 39 40 C38.34 39.01 37.68 38.02 37 37 Z M39 44 C40 47 40 47 40 47 Z M40 49 C41 51 41 51 41 51 Z M41 52 C42 54 42 54 42 54 Z M42 54 C43 57 43 57 43 57 Z M43 59 C44 61 44 61 44 61 Z M44 61 C45 63 45 63 45 63 Z " fill="#771C50" transform="translate(213,52)"/>
<path d="M0 0 C5.94 0 11.88 0 18 0 C18.33 10.89 18.66 21.78 19 33 C21.64 31.35 24.28 29.7 27 28 C36.83988998 25.06529597 46.45762475 27.0719527 55.3125 31.75 C58.55412163 34.46391578 60.27839548 37.21983809 62 41 C62.51723633 42.01489502 62.51723633 42.01489502 63.04492188 43.05029297 C66.93170828 51.86794203 66.53877192 60.78909373 66.41162109 70.23706055 C66.37467683 73.08743394 66.37060551 75.93651944 66.37109375 78.78710938 C66.36127662 80.59896963 66.34962579 82.4108211 66.3359375 84.22265625 C66.33371185 85.07465103 66.33148621 85.92664581 66.32919312 86.80445862 C66.2322881 92.7677119 66.2322881 92.7677119 64 95 C62.01171875 95.16015625 62.01171875 95.16015625 59.6875 95.0625 C56.94312408 94.98761334 54.82798013 95.03739562 52.125 95.625 C50 96 50 96 47 94 C46.68623044 91.24911481 46.55900435 88.71191987 46.55859375 85.95703125 C46.54538589 85.1552092 46.53217804 84.35338715 46.51856995 83.52726746 C46.47759095 80.95564399 46.45600271 78.38437637 46.4375 75.8125 C46.41363167 73.25858871 46.38530959 70.70500889 46.34571838 68.15129089 C46.32157915 66.56198105 46.3065441 64.97249783 46.30210876 63.38301086 C46.22071802 57.52010095 44.85388209 52.56164628 43 47 C38.52891095 44.92803191 33.86882076 44.10706955 29 45 C24.42994649 46.95729383 22.44530887 48.98287484 20.43334961 53.57836914 C18.83565642 57.9793447 18.54379065 61.97197346 18.5234375 66.62109375 C18.50785797 67.40646011 18.49227844 68.19182648 18.47622681 69.00099182 C18.42914336 71.47981952 18.40106308 73.95837014 18.375 76.4375 C18.33849883 78.94143224 18.29798036 81.44520741 18.25234985 83.94898987 C18.22512391 85.50027696 18.20377224 87.05168029 18.18881226 88.60313416 C18.11074221 93.88925779 18.11074221 93.88925779 17 95 C14.50941086 95.09997642 12.05272605 95.13879627 9.5625 95.125 C8.86833984 95.12886719 8.17417969 95.13273437 7.45898438 95.13671875 C2.25327988 95.12663994 2.25327988 95.12663994 0 94 C0 62.98 0 31.96 0 0 Z " fill="#030303" transform="translate(381,29)"/>
<path d="M0 0 C0 0.66 0 1.32 0 2 C1.32 2.33 2.64 2.66 4 3 C4 3.66 4 4.32 4 5 C4.66 5 5.32 5 6 5 C6.98753064 6.72440365 7.96468806 8.45475026 8.9375 10.1875 C9.48277344 11.15042969 10.02804688 12.11335938 10.58984375 13.10546875 C14.59346004 21.32341797 14.48942047 34.281123 11.875 43.0625 C8.32777389 51.58569606 1.51223559 59.20904189 -7.05078125 62.87890625 C-17.02192899 65.56416826 -29.59348212 65.4643894 -39 61 C-41.88098296 59.2318026 -44.60732878 57.39935466 -47 55 C-47 54.34 -47 53.68 -47 53 C-47.99 52.67 -48.98 52.34 -50 52 C-51.1328125 50.2578125 -51.1328125 50.2578125 -52.125 48.125 C-52.45757812 47.42632812 -52.79015625 46.72765625 -53.1328125 46.0078125 C-55.45562788 40.62976248 -55.25835011 35.65098792 -55.3125 29.875 C-55.35600586 28.36292969 -55.35600586 28.36292969 -55.40039062 26.8203125 C-55.48821311 16.38970362 -52.25582603 9.48887296 -45.1328125 1.9453125 C-33.0159945 -9.10629073 -13.47605904 -7.86103444 0 0 Z M-35 18 C-37.4194467 21.64551766 -37.33204342 25.07075112 -37.375 29.375 C-37.40335938 30.66148438 -37.43171875 31.94796875 -37.4609375 33.2734375 C-36.82591092 38.40746597 -34.78808549 41.30640684 -31.078125 44.8203125 C-26.4867896 47.42667207 -20.77170852 47.43207396 -15.64453125 46.6328125 C-11.77434587 45.4565085 -9.66273971 44.05039809 -7.5625 40.5625 C-4.65410629 33.93136234 -4.27020151 28.13541877 -6 21 C-6.66 21 -7.32 21 -8 21 C-8 20.01 -8 19.02 -8 18 C-8.66 18 -9.32 18 -10 18 C-10.2475 17.38125 -10.495 16.7625 -10.75 16.125 C-12.27711158 13.52891032 -13.22031737 13.09286668 -16 12 C-23.96018687 10.83235623 -29.92457402 11.37459363 -35 18 Z " fill="#090909" transform="translate(192,61)"/>
<path d="M0 0 C0.37890625 2.328125 0.37890625 2.328125 0.5625 5.25 C0.56600393 11.56770038 0.56600393 11.56770038 3 17 C5.52793394 17.23671983 8.02934966 17.4214325 10.5625 17.5625 C13.016875 17.706875 15.47125 17.85125 18 18 C18 23.28 18 28.56 18 34 C10.08 34.495 10.08 34.495 2 35 C1.77827579 39.39553273 1.57209879 43.79085312 1.375 48.1875 C1.31054688 49.43337891 1.24609375 50.67925781 1.1796875 51.96289062 C1.128125 53.16494141 1.0765625 54.36699219 1.0234375 55.60546875 C0.97106934 56.71043701 0.91870117 57.81540527 0.86474609 58.95385742 C0.85107525 62.42480087 0.85107525 62.42480087 3 67 C7.29 67 11.58 67 16 67 C21.49107143 79.1875 21.49107143 79.1875 20 84 C15.10515466 84.78949118 10.410277 85.16199858 5.4375 85.1875 C4.17808594 85.20167969 2.91867187 85.21585937 1.62109375 85.23046875 C-3.39428761 84.91125893 -6.79250348 84.03499702 -10.625 80.75 C-16.93384404 73.44502269 -18.04164533 68.13169015 -18.31640625 58.6328125 C-18.33718735 57.95322479 -18.35796844 57.27363708 -18.37937927 56.57345581 C-18.4442363 54.42406334 -18.50345941 52.2745593 -18.5625 50.125 C-18.60574612 48.6588431 -18.64936225 47.19269706 -18.69335938 45.7265625 C-18.79985104 42.15115725 -18.90129409 38.57562963 -19 35 C-22.63 34.67 -26.26 34.34 -30 34 C-30 28.72 -30 23.44 -30 18 C-26.04 18 -22.08 18 -18 18 C-18 12.39 -18 6.78 -18 1 C-15.40125 0.649375 -12.8025 0.29875 -10.125 -0.0625 C-9.30789551 -0.17601807 -8.49079102 -0.28953613 -7.64892578 -0.40649414 C-2.22222222 -1.11111111 -2.22222222 -1.11111111 0 0 Z " fill="#080808" transform="translate(353,39)"/>
<path d="M0 0 C2.125 0.375 2.125 0.375 4 1 C5.94407856 8.93832077 7.62664185 16.91611313 9.1875 24.9375 C9.36635742 25.83686279 9.54521484 26.73622559 9.72949219 27.6628418 C10.59424472 32.17582176 11.22074774 36.37952135 11 41 C6.25 42.125 6.25 42.125 4 41 C1.8428815 49.31867508 -0.1689013 57.63891609 -1.875 66.0625 C-3.57387429 74.39827538 -5.65242577 82.60825288 -7.85229492 90.82495117 C-9.53996669 97.14092675 -11.02924386 103.4449034 -12.26171875 109.8671875 C-12.50535156 110.57101563 -12.74898438 111.27484375 -13 112 C-14.485 112.495 -14.485 112.495 -16 113 C-18.97258345 104.55436585 -21.4747444 96.00580595 -23.89306641 87.38793945 C-24.13718262 86.51999756 -24.38129883 85.65205566 -24.6328125 84.7578125 C-24.86387695 83.92668945 -25.09494141 83.09556641 -25.33300781 82.23925781 C-26.01680812 79.82368595 -26.01680812 79.82368595 -27.2421875 76.8671875 C-29.19121429 69.49303458 -25.91334574 61.17258205 -24.0625 54 C-23.79759766 52.9584375 -23.53269531 51.916875 -23.25976562 50.84375 C-22.74550659 48.82244401 -22.22946999 46.8015892 -21.71142578 44.78125 C-20.79307704 41.19105479 -19.89471507 37.59614944 -19 34 C-20.98 33.67 -22.96 33.34 -25 33 C-25.33009433 29.82214271 -25.26930446 28.39025757 -23.42578125 25.71875 C-22.72839844 24.9865625 -22.03101563 24.254375 -21.3125 23.5 C-20.58546875 22.72398438 -19.8584375 21.94796875 -19.109375 21.1484375 C-17.44499283 19.45323344 -15.76706105 17.7794269 -14.0625 16.125 C-11.78900154 14.09003065 -11.78900154 14.09003065 -11 11 C-10.34 11 -9.68 11 -9 11 C-9 10.34 -9 9.68 -9 9 C-8.34 9 -7.68 9 -7 9 C-7 8.34 -7 7.68 -7 7 C-5.37660195 5.29115995 -3.70680947 3.62553283 -2 2 C-1.34 1.34 -0.68 0.68 0 0 Z " fill="#8F2052" transform="translate(308,1)"/>
<path d="M0 0 C0.99 0.66 1.98 1.32 3 2 C2.26821863 5.68567935 0.77264172 8.82254016 -0.875 12.1875 C-1.64457031 13.78658203 -1.64457031 13.78658203 -2.4296875 15.41796875 C-4 18 -4 18 -7 19 C-7 18.34 -7 17.68 -7 17 C-13.11710806 15.00257696 -18.67704418 13.58981364 -24.75 16.5625 C-28.52526014 18.54715779 -29.77933653 22.10539651 -31 26 C-31.43100418 29.00130985 -31.48737408 31.96697627 -31.51171875 34.99609375 C-31.52966995 35.82963882 -31.54762115 36.6631839 -31.56611633 37.52198792 C-31.61990295 40.16044188 -31.65401231 42.79871828 -31.6875 45.4375 C-31.72070112 47.23635267 -31.75519334 49.035182 -31.79101562 50.83398438 C-31.87561075 55.22252745 -31.94257173 59.61102077 -32 64 C-35.53384559 65.17794853 -38.40277553 65.13264317 -42.125 65.125 C-44.01605469 65.12886719 -44.01605469 65.12886719 -45.9453125 65.1328125 C-49 65 -49 65 -50 64 C-50.11825212 62.11943631 -50.16737967 60.23449045 -50.18945312 58.3503418 C-50.20617065 57.14206223 -50.22288818 55.93378265 -50.2401123 54.68888855 C-50.26047546 52.714002 -50.26047546 52.714002 -50.28125 50.69921875 C-50.29928347 49.34258783 -50.31788626 47.98596437 -50.33703613 46.62934875 C-50.39682426 42.31546113 -50.44888798 38.00149795 -50.5 33.6875 C-50.55925558 28.69948446 -50.62166581 23.71154715 -50.69187927 18.72367287 C-50.71840586 16.7251464 -50.73918458 14.72654633 -50.7598877 12.72795105 C-50.77660522 11.510215 -50.79332275 10.29247894 -50.81054688 9.0378418 C-50.82307495 7.966082 -50.83560303 6.8943222 -50.84851074 5.79008484 C-50.98020101 3.36465203 -51.3031332 1.31637637 -52 -1 C-48.23564408 -3.49055871 -45.13382623 -3.03090984 -40.75 -2.625 C-39.48671875 -2.51414063 -38.2234375 -2.40328125 -36.921875 -2.2890625 C-35.95765625 -2.19367187 -34.9934375 -2.09828125 -34 -2 C-33.67 -0.68 -33.34 0.64 -33 2 C-32.01 2 -31.02 2 -30 2 C-30 1.01 -30 0.02 -30 -1 C-19.70294683 -5.3684468 -9.80307922 -5.70285288 0 0 Z " fill="#080808" transform="translate(132,59)"/>
<path d="M0 0 C8.25 0 16.5 0 25 0 C28.375 9 28.375 9 28.1875 14.5 C28.16042969 15.5415625 28.13335937 16.583125 28.10546875 17.65625 C28.07066406 18.4296875 28.03585938 19.203125 28 20 C28.66 20 29.32 20 30 20 C30.33 21.65 30.66 23.3 31 25 C30.01 25.33 29.02 25.66 28 26 C29.37485532 27.54166642 29.37485532 27.54166642 31 29 C31.66 29 32.32 29 33 29 C32.67 31.31 32.34 33.62 32 36 C33.65 36.33 35.3 36.66 37 37 C36.98839844 38.18078125 36.97679687 39.3615625 36.96484375 40.578125 C36.95546248 42.13541508 36.94636264 43.69270688 36.9375 45.25 C36.92493164 46.41595703 36.92493164 46.41595703 36.91210938 47.60546875 C36.90888672 48.35957031 36.90566406 49.11367187 36.90234375 49.890625 C36.89710693 50.58188477 36.89187012 51.27314453 36.88647461 51.98535156 C37.00562029 54.09973898 37.42381763 55.96641515 38 58 C38.99 57.67 39.98 57.34 41 57 C40 59 39 61 38 63 C39.32 63 40.64 63 42 63 C42.33 64.32 42.66 65.64 43 67 C42.36191406 67.04898438 41.72382813 67.09796875 41.06640625 67.1484375 C40.24011719 67.22320312 39.41382813 67.29796875 38.5625 67.375 C37.73878906 67.44460937 36.91507813 67.51421875 36.06640625 67.5859375 C35.04353516 67.79089844 35.04353516 67.79089844 34 68 C33.67 68.66 33.34 69.32 33 70 C35.31 70 37.62 70 40 70 C40 70.33 40 70.66 40 71 C37.39635591 71.24867947 34.79410106 71.47457902 32.1875 71.6875 C31.44951172 71.76033203 30.71152344 71.83316406 29.95117188 71.90820312 C24.45739958 72.33080099 24.45739958 72.33080099 22.3840332 70.83129883 C20.64037655 68.52416026 19.92485989 66.38603208 19.0625 63.625 C18.72476563 62.55636719 18.38703125 61.48773438 18.0390625 60.38671875 C17.69617188 59.26910156 17.35328125 58.15148437 17 57 C16.65710938 55.91332031 16.31421875 54.82664063 15.9609375 53.70703125 C14.06559241 47.65205475 12.30259201 41.57941387 10.7109375 35.4375 C10.02919972 32.93651623 10.02919972 32.93651623 8.9140625 30.375 C8 28 8 28 8 25 C6.2984375 25.0309375 6.2984375 25.0309375 4.5625 25.0625 C1 25 1 25 0 24 C-0.08726223 22.21928754 -0.10699041 20.4351686 -0.09765625 18.65234375 C-0.09515869 17.68031006 -0.09266113 16.70827637 -0.09008789 15.70678711 C-0.08098389 14.46292236 -0.07187988 13.21905762 -0.0625 11.9375 C-0.041875 7.998125 -0.02125 4.05875 0 0 Z " fill="#441741" transform="translate(213,52)"/>
<path d="M0 0 C5.94 0 11.88 0 18 0 C16 2 16 2 12 3 C8.37 2.67 4.74 2.34 1 2 C1 32.36 1 62.72 1 94 C0.67 94 0.34 94 0 94 C0 62.98 0 31.96 0 0 Z " fill="#696969" transform="translate(381,29)"/>
<path d="M0 0 C1.875 0.5625 1.875 0.5625 4 2 C5.0625 5.1875 5.0625 5.1875 6 9 C6.49579168 10.23947919 7.01642675 11.4693366 7.5625 12.6875 C8.64525012 15.1825329 9.47101245 17.35506227 10 20 C6.52487282 21.15837573 4.86329714 20.77265943 1.3125 20.0625 C0.31863281 19.86785156 -0.67523438 19.67320313 -1.69921875 19.47265625 C-2.45847656 19.31667969 -3.21773437 19.16070312 -4 19 C-3.505 17.515 -3.505 17.515 -3 16 C-0.03 16 2.94 16 6 16 C4.36526484 12.87525373 4.36526484 12.87525373 1.875 12.3125 C0.946875 12.1578125 0.946875 12.1578125 0 12 C0.99 10.35 1.98 8.7 3 7 C2.34 7 1.68 7 1 7 C0.34 5.02 -0.32 3.04 -1 1 C-0.67 0.67 -0.34 0.34 0 0 Z " fill="#621F50" transform="translate(250,103)"/>
<path d="M0 0 C2.45823172 3.68734758 3.01242616 6.69699971 4 11 C4.99 10.67 5.98 10.34 7 10 C7.38971999 12.10149011 7.76131477 14.2063482 8.125 16.3125 C8.33382812 17.48425781 8.54265625 18.65601563 8.7578125 19.86328125 C9 23 9 23 7 26 C6.01 25.67 5.02 25.34 4 25 C3 22 3 22 3.9375 19.8125 C4.4634375 18.9153125 4.4634375 18.9153125 5 18 C4.01 18.33 3.02 18.66 2 19 C1.34 17.68 0.68 16.36 0 15 C0.66 14.67 1.32 14.34 2 14 C2 12.35 2 10.7 2 9 C1.34 9 0.68 9 0 9 C-0.84454356 5.62182575 -1.10844919 3.32534757 0 0 Z M5 14 C5.33 15.98 5.66 17.96 6 20 C6.6814823 18.10820797 6.6814823 18.10820797 7 16 C6.34 15.34 5.68 14.68 5 14 Z " fill="#693860" transform="translate(241,63)"/>
<path d="M0 0 C0.33 0.99 0.66 1.98 1 3 C1.99 3.33 2.98 3.66 4 4 C4 4.99 4 5.98 4 7 C4.66 7 5.32 7 6 7 C6.93423645 10.01031744 7.04449911 10.86650268 6 14 C6.66 14.33 7.32 14.66 8 15 C8.25 21.625 8.25 21.625 6 25 C2.66883334 16.57989239 0.20535059 9.14743526 0 0 Z " fill="#5E1E4C" transform="translate(249,78)"/>
<path d="M0 0 C2.0625 0.25 2.0625 0.25 4 1 C5.4783226 3.95664519 5.06032783 6.74229737 5 10 C0.83861737 10.08159574 -2.9472484 9.98248524 -7 9 C-7 7 -7 7 -4.625 4.5 C-3.75875 3.675 -2.8925 2.85 -2 2 C-1.34 1.34 -0.68 0.68 0 0 Z " fill="#881B4D" transform="translate(308,1)"/>
<path d="M0 0 C0.99 0.495 0.99 0.495 2 1 C2.26380359 4.1920234 2.36684863 7.34012141 2.390625 10.54101562 C2.42908841 12.80638936 2.42908841 12.80638936 3 16 C4.90859879 17.56193907 4.90859879 17.56193907 7 18 C7 19.32 7 20.64 7 22 C4.69 22 2.38 22 0 22 C0 14.74 0 7.48 0 0 Z " fill="#1B0D22" transform="translate(213,54)"/>
<path d="M0 0 C7.59 0 15.18 0 23 0 C22.67 0.66 22.34 1.32 22 2 C21.40461426 2.02505615 20.80922852 2.0501123 20.19580078 2.07592773 C17.50530864 2.19177494 14.8151766 2.31455196 12.125 2.4375 C11.18785156 2.47681641 10.25070312 2.51613281 9.28515625 2.55664062 C8.38925781 2.59853516 7.49335938 2.64042969 6.5703125 2.68359375 C5.74289551 2.72025146 4.91547852 2.75690918 4.06298828 2.79467773 C1.93820571 2.88238327 1.93820571 2.88238327 0 4 C0 2.68 0 1.36 0 0 Z " fill="#76365A" transform="translate(251,52)"/>
<path d="M0 0 C0.33 0.66 0.66 1.32 1 2 C4.02934491 2.65772428 4.02934491 2.65772428 7 3 C6.67 5.31 6.34 7.62 6 10 C5.01 10.33 4.02 10.66 3 11 C2.49384702 9.73160474 1.99530901 8.46016898 1.5 7.1875 C1.2215625 6.47980469 0.943125 5.77210937 0.65625 5.04296875 C0 3 0 3 0 0 Z " fill="#A66581" transform="translate(289,103)"/>
<path d="M0 0 C1.95218444 3.27688103 2.27063566 5.77069727 2.25 9.5625 C2.25515625 10.51253906 2.2603125 11.46257812 2.265625 12.44140625 C2 15 2 15 0 18 C-2.67463708 11.70673629 -1.89020017 6.4806863 0 0 Z " fill="#AA5E80" transform="translate(282,63)"/>
<path d="M0 0 C0.99 0.33 1.98 0.66 3 1 C4.10868317 4.32604951 4.54177532 7.53058454 5 11 C2 11 2 11 0 10 C-1.41661269 6.52285976 -0.73584712 3.5974748 0 0 Z M3 8 C4 10 4 10 4 10 Z " fill="#976A8D" transform="translate(250,93)"/>
<path d="M0 0 C0.78375 0.04125 1.5675 0.0825 2.375 0.125 C-0.08653846 6.77115385 -0.08653846 6.77115385 -2.8125 8.5625 C-3.7096875 8.8409375 -3.7096875 8.8409375 -4.625 9.125 C-4.75 5.75 -4.75 5.75 -4.625 2.125 C-2.625 0.125 -2.625 0.125 0 0 Z " fill="#5D1847" transform="translate(255.625,53.875)"/>
<path d="M0 0 C5.94 0 11.88 0 18 0 C15.77143092 2.22856908 15.04029215 2.53347241 12 3 C9.91325046 2.91620565 7.82850934 2.76583244 5.75 2.5625 C4.67234375 2.46066406 3.5946875 2.35882812 2.484375 2.25390625 C1.66453125 2.17011719 0.8446875 2.08632813 0 2 C0 1.34 0 0.68 0 0 Z " fill="#404040" transform="translate(381,29)"/>
<path d="M0 0 C0.66 0 1.32 0 2 0 C1.67 1.32 1.34 2.64 1 4 C0.34 3.67 -0.32 3.34 -1 3 C-0.896875 3.763125 -0.79375 4.52625 -0.6875 5.3125 C-0.790625 6.199375 -0.89375 7.08625 -1 8 C-3.375 9.875 -3.375 9.875 -6 11 C-6.66 10.67 -7.32 10.34 -8 10 C-7.195625 9.236875 -6.39125 8.47375 -5.5625 7.6875 C-2.83200976 5.20569102 -2.83200976 5.20569102 -2 2 C-1.34 2 -0.68 2 0 2 C0 1.34 0 0.68 0 0 Z " fill="#A05477" transform="translate(299,10)"/>
<path d="M0 0 C2.12046792 3.53411321 2.53199289 6.94393835 3 11 C1.35 11.33 -0.3 11.66 -2 12 C-1.855625 11.319375 -1.71125 10.63875 -1.5625 9.9375 C-0.93054091 6.63726918 -0.45686059 3.32855574 0 0 Z " fill="#9C4B70" transform="translate(284,93)"/>
<path d="M0 0 C2.12300942 3.53834904 2.69690596 6.90823045 3 11 C2.34 11.66 1.68 12.32 1 13 C-2.2 6.84615385 -2.2 6.84615385 -1.1875 2.5625 C-0.795625 1.716875 -0.40375 0.87125 0 0 Z " fill="#9C4E77" transform="translate(276,62)"/>
<path d="M0 0 C0.99 0.33 1.98 0.66 3 1 C3.765625 2.70703125 3.765625 2.70703125 4.25 4.8125 C4.50523437 5.84310547 4.50523437 5.84310547 4.765625 6.89453125 C5.02170666 9.19499821 4.69015367 10.80629727 4 13 C3.67 12.01 3.34 11.02 3 10 C2.484375 9.5875 1.96875 9.175 1.4375 8.75 C-0.8039884 6.02123151 -0.1923317 3.39786009 0 0 Z " fill="#8A385B" transform="translate(285,104)"/>
<path d="M0 0 C0 3.94612369 -0.85235484 6.80821465 -3.625 9.6875 C-4.07875 10.120625 -4.5325 10.55375 -5 11 C-5 11.66 -5 12.32 -5 13 C-5.66 13 -6.32 13 -7 13 C-7.3077917 9.86162389 -7.27813784 8.40656372 -5.46875 5.76171875 C-4.8190625 5.07722656 -4.169375 4.39273437 -3.5 3.6875 C-2.8503125 2.99011719 -2.200625 2.29273438 -1.53125 1.57421875 C-1.0259375 1.05472656 -0.520625 0.53523438 0 0 Z " fill="#A65D7D" transform="translate(290,21)"/>
<path d="M0 0 C2.97 0 5.94 0 9 0 C8.67 0.99 8.34 1.98 8 3 C5.03 3 2.06 3 -1 3 C-0.67 2.01 -0.34 1.02 0 0 Z " fill="#5E154A" transform="translate(247,119)"/>
<path d="M0 0 C2.125 0.375 2.125 0.375 4 1 C3.67 1.99 3.34 2.98 3 4 C1.68 4 0.36 4 -1 4 C-3.75041666 6.41666771 -3.75041666 6.41666771 -6 9 C-6.33 8.34 -6.66 7.68 -7 7 C-4.66666667 4.66666667 -2.33333333 2.33333333 0 0 Z " fill="#AD728A" transform="translate(308,1)"/>
<path d="M0 0 C0.66 0.33 1.32 0.66 2 1 C1.34 4.3 0.68 7.6 0 11 C-1.9451 8.08235 -2.45276317 6.37462715 -3 3 C-2.34 3 -1.68 3 -1 3 C-0.67 2.01 -0.34 1.02 0 0 Z " fill="#563856" transform="translate(231,97)"/>
<path d="M0 0 C0.66 0 1.32 0 2 0 C2.66 4.29 3.32 8.58 4 13 C3.01 13.33 2.02 13.66 1 14 C1.020625 12.80375 1.04125 11.6075 1.0625 10.375 C1.06882571 6.81995131 0.69888875 3.49444376 0 0 Z " fill="#8A5D84" transform="translate(246,73)"/>
<path d="M0 0 C0.66 0.33 1.32 0.66 2 1 C1.34 4.3 0.68 7.6 0 11 C-0.99 10.34 -1.98 9.68 -3 9 C-2.30058404 5.85262818 -1.23921302 2.97411124 0 0 Z " fill="#6D3158" transform="translate(262,102)"/>
<path d="M0 0 C1.32 0.66 2.64 1.32 4 2 C3.67 3.65 3.34 5.3 3 7 C2.34 7 1.68 7 1 7 C0.34 5.02 -0.32 3.04 -1 1 C-0.67 0.67 -0.34 0.34 0 0 Z " fill="#5E174F" transform="translate(250,103)"/>
<path d="M0 0 C1.25127906 3.54667178 0.72285053 5.72253438 -0.4375 9.25 C-0.72496094 10.14203125 -1.01242187 11.0340625 -1.30859375 11.953125 C-1.53675781 12.62859375 -1.76492188 13.3040625 -2 14 C-2.33 14 -2.66 14 -3 14 C-2.88570603 12.22844346 -2.75816963 10.45773771 -2.625 8.6875 C-2.55539062 7.70136719 -2.48578125 6.71523438 -2.4140625 5.69921875 C-2 3 -2 3 0 0 Z " fill="#954D6D" transform="translate(310,44)"/>
<path d="M0 0 C1.98 0 3.96 0 6 0 C5.67 1.65 5.34 3.3 5 5 C3.02 4.34 1.04 3.68 -1 3 C-0.67 2.01 -0.34 1.02 0 0 Z " fill="#993660" transform="translate(307,4)"/>
<path d="M0 0 C0.99 0.33 1.98 0.66 3 1 C3.6875 3.0625 3.6875 3.0625 4 5 C1 6 1 6 -1.1875 5.0625 C-1.785625 4.711875 -2.38375 4.36125 -3 4 C-2.34 3.67 -1.68 3.34 -1 3 C-0.67 2.01 -0.34 1.02 0 0 Z " fill="#6B3457" transform="translate(256,118)"/>
<path d="M0 0 C0.33 0 0.66 0 1 0 C1.33 2.97 1.66 5.94 2 9 C0.02 9.99 0.02 9.99 -2 11 C-1 3.57142857 -1 3.57142857 0 0 Z " fill="#9A476E" transform="translate(285,51)"/>
<path d="M0 0 C1.60080151 4.00200378 0.29279692 7.04556236 -1 11 C-1.33 11 -1.66 11 -2 11 C-2 7.7 -2 4.4 -2 1 C-1.34 0.67 -0.68 0.34 0 0 Z " fill="#A7637F" transform="translate(302,77)"/>
<path d="M0 0 C2.89932357 2.39509338 3.50168276 4.31245243 4 8 C3.01 8 2.02 8 1 8 C-0.35439668 5.29120665 -0.06501451 2.99066732 0 0 Z " fill="#462543" transform="translate(232,109)"/>
<path d="M0 0 C1.65 0 3.3 0 5 0 C3.515 3.465 3.515 3.465 2 7 C1.34 7 0.68 7 0 7 C0.185625 6.21625 0.37125 5.4325 0.5625 4.625 C1.25962266 2.02910225 1.25962266 2.02910225 0 0 Z " fill="#65164E" transform="translate(253,54)"/>
<path d="M0 0 C2 4 2 4 2 7 C1.67 7.66 1.34 8.32 1 9 C0.34 9 -0.32 9 -1 9 C-0.67 6.03 -0.34 3.06 0 0 Z " fill="#351236" transform="translate(229,91)"/>
</svg>
